<svg width="1256" height="1256" viewBox="0 0 1256 1256" fill="none" xmlns="http://www.w3.org/2000/svg">
<circle cx="628" cy="628" r="628" fill="#4529E6"/>
<path fill-rule="evenodd" clip-rule="evenodd" d="M773.798 964.125C725.411 972.71 658.559 965.338 590.877 947.85C501.721 924.814 411.137 884.236 359.465 839.516C486.672 898.751 586.485 910.199 675.6 900.011C704.027 926.855 737.229 948.696 773.798 964.125ZM729.532 379.462C638.258 385.665 564.421 332.039 536.787 288.407C515.929 337.907 544.787 382.907 577.787 402.907C581.162 404.721 584.589 406.578 588.079 408.469C607.757 419.133 629.432 430.879 655.005 442.068C676.568 417.714 701.68 396.575 729.532 379.462ZM593.579 543.629C601.926 521.61 612.565 500.719 625.204 481.246C517.139 441.4 432.893 380.907 390.492 310.531C375.385 365.24 386.625 420.83 418.048 463.406C363.453 444.564 288.108 407.469 240.398 366.284C248.088 451.279 313.593 530.54 386.985 603.693C328.137 603.477 252.915 568.74 215.771 525.161C222.434 594.305 269.084 688.173 359.16 736.813C294.942 719.984 235.586 699.828 193 677.517C221.719 741.381 302.515 792.506 396.441 815.912L396.443 815.911C466.141 833.277 543.07 835.378 611.315 816.094C605.683 805.608 600.602 794.782 596.111 783.654C512.374 783.268 433.408 753.47 386.985 687.714C439.645 700.466 460.077 699.224 501.571 696.701C511.139 696.119 521.826 695.469 534.287 694.907C494.679 680.726 474.155 660.791 441.518 629.091C439.002 626.648 436.414 624.134 433.74 621.548C444.086 622.112 452.594 622.667 459.879 623.142C495.933 625.491 502.041 625.89 552.787 615.907C539.45 590.364 534.987 580.527 529.581 571.238C523.028 559.982 515.089 549.531 488.287 512.907C523.517 527.571 558.246 537.635 593.579 543.629ZM487.809 258C481.787 305.407 490.18 351.529 515.93 388.36L515.929 388.359C434.173 337.656 451.287 294.907 487.809 258Z" fill="white"/>
<mask id="mask0_29723_3694" style="mask-type:alpha" maskUnits="userSpaceOnUse" x="539" y="322" width="496" height="677">
<path d="M1034.27 322.906H539.216V998.906H1034.27V322.906Z" fill="white"/>
</mask>
<g mask="url(#mask0_29723_3694)">
<path fill-rule="evenodd" clip-rule="evenodd" d="M844.781 334.439V333.046C844.781 327.413 849.288 322.906 854.921 322.906H936.041C941.567 322.906 946.009 327.243 946.177 332.726C956.229 334.101 966.139 335.931 975.887 338.192C975.912 337.206 976.137 336.229 976.601 335.3C978.855 330.793 984.488 327.413 988.995 329.666L1070.11 362.34C1074.62 364.593 1076.87 370.226 1074.62 374.733C1074.1 375.781 1073.39 376.769 1072.56 377.638C1080.43 382.423 1088.09 387.527 1095.51 392.931C1095.92 392.021 1096.47 391.194 1097.15 390.506C1100.53 387.126 1107.29 387.126 1110.67 390.506L1171.51 451.346C1176.02 454.726 1176.02 460.36 1171.51 464.866C1170.83 465.554 1170 466.101 1169.09 466.509C1173.75 472.911 1178.18 479.485 1182.38 486.219C1183.16 485.716 1184.04 485.344 1185.03 485.146C1189.54 482.893 1196.3 485.146 1197.43 490.78L1230.1 569.646C1233.48 574.153 1231.23 579.786 1225.59 582.04C1224.8 582.437 1223.93 582.695 1223.04 582.818C1224.78 589.982 1226.29 597.237 1227.55 604.573H1228.97C1234.61 604.573 1239.11 609.08 1239.11 614.713V695.833C1239.11 701.352 1234.79 705.79 1229.32 705.967C1227.95 716.022 1226.13 725.933 1223.88 735.68C1224.85 735.711 1225.81 735.936 1226.72 736.393C1231.23 738.646 1234.61 744.28 1232.35 748.786L1199.68 829.906C1197.43 834.413 1191.79 836.666 1187.29 834.413C1186.29 833.916 1185.35 833.253 1184.52 832.475C1179.75 840.334 1174.66 847.978 1169.28 855.391C1170.11 855.788 1170.88 856.307 1171.51 856.946C1174.89 860.326 1174.89 867.086 1171.51 870.466L1110.67 931.306C1107.29 935.813 1101.66 935.813 1097.15 931.306C1096.52 930.667 1096 929.906 1095.6 929.071C1089.2 933.718 1082.63 938.143 1075.9 942.332C1076.35 943.069 1076.69 943.902 1076.87 944.826C1079.13 949.333 1076.87 956.093 1071.24 957.22L992.375 989.893C987.868 993.273 982.235 991.02 979.981 985.386C979.592 984.607 979.337 983.761 979.211 982.888C968.397 985.502 957.375 987.585 946.176 989.109C945.998 994.581 941.56 998.906 936.041 998.906H854.921C849.288 998.906 844.781 994.4 844.781 988.766V987.377C838.232 986.255 831.748 984.94 825.336 983.44C825.251 984.515 824.976 985.564 824.501 986.513C822.248 991.02 816.615 994.4 812.108 992.146L732.115 959.473C727.608 957.22 724.228 951.586 726.481 947.08C727.066 945.911 727.878 944.818 728.838 943.879C721.228 939.236 713.82 934.294 706.63 929.071C706.233 929.906 705.714 930.667 705.075 931.306C701.695 934.686 694.935 934.686 691.555 931.306L630.715 870.466C627.335 867.086 627.335 860.326 630.715 856.946C631.354 856.307 632.115 855.788 632.951 855.391C628.347 849.054 623.963 842.548 619.809 835.884C619.052 836.65 618.177 837.302 617.195 837.793C612.688 840.046 605.928 837.793 604.801 832.16L572.128 753.293C569.875 748.786 572.128 742.026 577.761 740.9C578.296 740.632 578.862 740.429 579.447 740.286C576.686 729.061 574.497 717.61 572.914 705.967C567.441 705.79 563.115 701.352 563.115 695.833V614.713C563.115 609.08 567.621 604.573 573.255 604.573H574.646C575.768 598.023 577.082 591.54 578.583 585.128C577.507 585.042 576.458 584.768 575.508 584.293C571.001 582.04 567.621 576.406 569.875 571.9L602.548 491.906C604.801 487.4 610.435 484.02 614.941 486.273C616.111 486.858 617.205 487.67 618.144 488.632C622.787 481.021 627.729 473.613 632.952 466.423C632.116 466.025 631.355 465.506 630.715 464.866C627.335 461.486 627.335 454.726 630.715 451.346L691.555 390.506C694.935 387.126 701.695 387.126 705.075 390.506C705.715 391.146 706.234 391.908 706.631 392.744C712.968 388.141 719.474 383.756 726.138 379.602C725.372 378.845 724.72 377.969 724.228 376.986C721.975 372.48 724.228 365.72 729.861 364.593L808.728 331.92C813.235 329.666 819.995 331.92 821.121 337.553C821.389 338.088 821.593 338.655 821.735 339.24C829.318 337.375 837.003 335.771 844.781 334.439ZM1083.63 660.906C1083.63 761.709 1001.92 843.426 901.115 843.426C800.312 843.426 718.595 761.709 718.595 660.906C718.595 560.103 800.312 478.386 901.115 478.386C1001.92 478.386 1083.63 560.103 1083.63 660.906ZM901.114 940.32C743.381 940.32 621.701 815.26 621.701 660.907H644.234C644.234 802.867 754.648 917.787 901.114 917.787V940.32ZM1157.99 660.907H1180.53C1180.53 506.553 1058.85 381.493 901.114 381.493V404.027C1047.58 404.027 1157.99 518.947 1157.99 660.907Z" fill="white"/>
<path d="M901.115 758.926C955.25 758.926 999.135 715.041 999.135 660.906C999.135 606.771 955.25 562.886 901.115 562.886C846.98 562.886 803.095 606.771 803.095 660.906C803.095 715.041 846.98 758.926 901.115 758.926Z" fill="white"/>
</g>
</svg>
