<svg width="2410" height="741" viewBox="0 0 2410 741" fill="none" xmlns="http://www.w3.org/2000/svg">
<path fill-rule="evenodd" clip-rule="evenodd" d="M581.511 706.219C533.124 714.804 466.273 707.431 398.591 689.943C309.434 666.907 218.85 626.33 167.179 581.61C294.385 640.845 394.198 652.292 483.314 642.105C511.74 668.949 544.942 690.79 581.511 706.219ZM537.245 121.556C445.971 127.759 372.134 74.1329 344.5 30.5004C323.642 80.0005 352.5 125 385.5 145C388.875 146.815 392.302 148.672 395.793 150.563C415.47 161.227 437.145 172.973 462.718 184.161C484.281 159.808 509.394 138.669 537.245 121.556ZM401.292 285.723C409.639 263.704 420.278 242.813 432.918 223.34C324.853 183.494 240.606 123 198.205 52.6248C183.099 107.334 194.338 162.924 225.761 205.5C171.167 186.658 95.8217 149.563 48.1117 108.378C55.8012 193.372 121.306 272.634 194.699 345.786C135.85 345.571 60.6281 310.834 23.4848 267.255C30.1476 336.398 76.797 430.266 166.873 478.907C102.655 462.077 43.2991 441.922 0.713379 419.611C29.432 483.475 110.228 534.6 204.155 558.006L204.156 558.004C273.855 575.371 350.784 577.472 419.028 558.187C413.396 547.702 408.315 536.876 403.824 525.748C320.088 525.361 241.121 495.563 194.699 429.808C247.358 442.56 267.791 441.317 309.285 438.794C318.852 438.212 329.54 437.563 342 437C302.393 422.82 281.868 402.884 249.231 371.185C246.716 368.741 244.128 366.228 241.453 363.641C251.799 364.206 260.307 364.761 267.592 365.235C303.646 367.585 309.754 367.983 360.5 358C347.164 332.458 342.701 322.62 337.294 313.332C330.741 302.075 322.802 291.625 296 255C331.231 269.665 365.96 279.729 401.292 285.723ZM295.523 0.09375C289.5 47.5005 297.893 93.6231 323.643 130.453L323.642 130.453C241.887 79.7502 259 37.0005 295.523 0.09375Z" fill="white"/>
<mask id="mask0_29723_3693" style="mask-type:alpha" maskUnits="userSpaceOnUse" x="346" y="65" width="496" height="676">
<path d="M841.98 65H346.929V741H841.98V65Z" fill="white"/>
</mask>
<g mask="url(#mask0_29723_3693)">
<path fill-rule="evenodd" clip-rule="evenodd" d="M652.495 76.5325V75.14C652.495 69.5067 657.002 65 662.635 65H743.755C749.281 65 753.723 69.3367 753.89 74.8195C763.942 76.1952 773.853 78.0244 783.6 80.2857C783.625 79.3 783.85 78.3227 784.315 77.3933C786.568 72.8867 792.202 69.5067 796.708 71.76L877.828 104.433C882.335 106.687 884.588 112.32 882.335 116.827C881.811 117.875 881.104 118.862 880.27 119.732C888.142 124.517 895.8 129.621 903.225 135.025C903.633 134.115 904.181 133.287 904.868 132.6C908.248 129.22 915.008 129.22 918.388 132.6L979.228 193.44C983.735 196.82 983.735 202.453 979.228 206.96C978.541 207.647 977.714 208.195 976.803 208.603C981.462 215.004 985.898 221.578 990.098 228.313C990.873 227.81 991.758 227.438 992.748 227.24C997.255 224.987 1004.01 227.24 1005.14 232.873L1037.81 311.74C1041.19 316.247 1038.94 321.88 1033.31 324.133C1032.51 324.531 1031.65 324.788 1030.76 324.911C1032.5 332.076 1034 339.331 1035.27 346.667H1036.69C1042.32 346.667 1046.83 351.173 1046.83 356.807V437.927C1046.83 443.446 1042.5 447.884 1037.03 448.061C1035.66 458.116 1033.84 468.027 1031.59 477.773C1032.56 477.805 1033.52 478.03 1034.43 478.487C1038.94 480.74 1042.32 486.373 1040.07 490.88L1007.39 572C1005.14 576.507 999.508 578.76 995.002 576.507C994.007 576.009 993.067 575.347 992.23 574.569C987.463 582.427 982.377 590.072 976.992 597.484C977.828 597.882 978.589 598.4 979.228 599.04C982.608 602.42 982.608 609.18 979.228 612.56L918.388 673.4C915.008 677.907 909.375 677.907 904.868 673.4C904.229 672.761 903.71 672 903.313 671.164C896.916 675.812 890.345 680.236 883.614 684.426C884.067 685.163 884.403 685.996 884.588 686.92C886.842 691.427 884.588 698.187 878.955 699.313L800.088 731.987C795.582 735.367 789.948 733.113 787.695 727.48C787.306 726.701 787.051 725.855 786.925 724.982C776.11 727.596 765.089 729.679 753.889 731.202C753.711 736.675 749.274 741 743.755 741H662.635C657.002 741 652.495 736.493 652.495 730.86V729.471C645.945 728.349 639.462 727.034 633.049 725.534C632.964 726.609 632.689 727.658 632.215 728.607C629.962 733.113 624.328 736.493 619.822 734.24L539.828 701.567C535.322 699.313 531.942 693.68 534.195 689.173C534.779 688.004 535.591 686.911 536.552 685.973C528.942 681.33 521.534 676.388 514.344 671.165C513.946 672 513.428 672.761 512.788 673.4C509.408 676.78 502.648 676.78 499.268 673.4L438.428 612.56C435.048 609.18 435.048 602.42 438.428 599.04C439.068 598.401 439.828 597.882 440.664 597.484C436.061 591.148 431.676 584.642 427.522 577.978C426.766 578.744 425.891 579.395 424.908 579.887C420.402 582.14 413.642 579.887 412.515 574.253L379.842 495.387C377.588 490.88 379.842 484.12 385.475 482.993C386.009 482.726 386.575 482.522 387.16 482.38C384.399 471.155 382.211 459.704 380.627 448.061C375.154 447.884 370.828 443.446 370.828 437.927V356.807C370.828 351.173 375.335 346.667 380.968 346.667H382.359C383.481 340.117 384.796 333.633 386.297 327.221C385.221 327.136 384.171 326.861 383.222 326.387C378.715 324.133 375.335 318.5 377.588 313.993L410.262 234C412.515 229.493 418.148 226.113 422.655 228.367C423.825 228.951 424.918 229.764 425.857 230.725C430.5 223.115 435.442 215.707 440.666 208.516C439.829 208.119 439.068 207.6 438.428 206.96C435.048 203.58 435.048 196.82 438.428 193.44L499.268 132.6C502.648 129.22 509.408 129.22 512.788 132.6C513.428 133.24 513.947 134.001 514.345 134.838C520.681 130.234 527.187 125.85 533.852 121.696C533.085 120.939 532.433 120.063 531.942 119.08C529.688 114.573 531.942 107.813 537.575 106.687L616.442 74.0133C620.948 71.76 627.708 74.0133 628.835 79.6467C629.102 80.1817 629.306 80.7484 629.449 81.3338C637.031 79.4689 644.717 77.8651 652.495 76.5325ZM891.348 403C891.348 503.803 809.631 585.52 708.828 585.52C608.025 585.52 526.308 503.803 526.308 403C526.308 302.197 608.025 220.48 708.828 220.48C809.631 220.48 891.348 302.197 891.348 403ZM708.828 682.414C551.095 682.414 429.415 557.354 429.415 403.001H451.948C451.948 544.961 562.361 659.88 708.828 659.88V682.414ZM965.708 403.001H988.241C988.241 248.647 866.561 123.587 708.828 123.587V146.121C855.295 146.121 965.708 261.041 965.708 403.001Z" fill="white"/>
<path d="M708.828 501.02C762.963 501.02 806.848 457.135 806.848 403C806.848 348.865 762.963 304.98 708.828 304.98C654.693 304.98 610.808 348.865 610.808 403C610.808 457.135 654.693 501.02 708.828 501.02Z" fill="white"/>
<path d="M708.828 467.22C744.296 467.22 773.048 438.468 773.048 403C773.048 367.532 744.296 338.78 708.828 338.78C673.361 338.78 644.608 367.532 644.608 403C644.608 438.468 673.361 467.22 708.828 467.22Z" fill="white"/>
</g>
<path d="M995.207 381.832L912.038 95.0441H993.568L1030.85 232.702C1032.76 240.623 1034.4 248.407 1035.77 256.055C1037.41 263.43 1038.63 270.394 1039.45 276.95C1040.27 283.232 1040.96 289.104 1041.5 294.567C1042.05 300.029 1042.46 304.536 1042.73 308.087H1034.95C1035.77 299.893 1036.45 291.972 1037 284.324C1037.82 276.403 1039.04 268.346 1040.68 260.152C1042.32 251.685 1044.78 242.535 1048.06 232.702L1086.57 127H1149.25L1187.35 232.702C1191.18 243.081 1194.05 252.641 1195.96 261.381C1198.14 269.848 1199.78 277.906 1200.87 285.553C1201.97 293.201 1202.79 300.575 1203.33 307.677L1196.37 308.087C1196.64 303.99 1196.78 299.893 1196.78 295.796C1196.78 291.699 1196.91 287.465 1197.19 283.095C1197.46 278.452 1197.87 273.535 1198.42 268.346C1198.96 263.156 1199.78 257.694 1200.87 251.958C1201.97 245.949 1203.33 239.531 1204.97 232.702L1242.25 95.0441H1321.33L1237.75 381.832H1174.65L1109.92 223.279H1119.75L1061.58 381.832H995.207Z" fill="white"/>
<path d="M1348.45 381.832V78.6562H1423.02V207.711L1407.45 212.627C1410.18 202.248 1415.51 193.098 1423.43 185.177C1431.35 176.984 1440.77 170.565 1451.7 165.922C1462.62 161.278 1474.09 158.957 1486.11 158.957C1502.5 158.957 1516.29 162.371 1527.49 169.199C1538.96 175.754 1547.56 185.724 1553.3 199.107C1559.31 212.217 1562.31 228.332 1562.31 247.451V381.832H1486.11V253.597C1486.11 246.495 1485.02 240.623 1482.83 235.98C1480.65 231.064 1477.37 227.376 1473 224.918C1468.63 222.46 1463.44 221.367 1457.43 221.64C1452.79 221.64 1448.42 222.323 1444.32 223.689C1440.5 225.055 1437.08 227.24 1434.08 230.244C1431.07 232.975 1428.75 236.116 1427.11 239.667C1425.75 243.218 1425.07 247.178 1425.07 251.548V381.832H1386.96C1377.68 381.832 1369.76 381.832 1363.2 381.832C1356.92 381.832 1352 381.832 1348.45 381.832Z" fill="white"/>
<path d="M1721.41 385.929C1696.55 385.929 1675.11 381.149 1657.08 371.59C1639.06 361.757 1625.13 348.373 1615.3 331.439C1605.46 314.232 1600.55 294.703 1600.55 272.853C1600.55 256.465 1603.28 241.306 1608.74 227.376C1614.2 213.447 1621.85 201.429 1631.68 191.323C1641.52 180.944 1653.12 173.023 1666.51 167.561C1680.16 161.825 1695.05 158.957 1711.16 158.957C1727.01 158.957 1741.35 161.688 1754.18 167.151C1767.29 172.613 1778.49 180.398 1787.78 190.504C1797.34 200.609 1804.58 212.491 1809.49 226.147C1814.68 239.804 1817 254.826 1816.46 271.214L1816.05 288.421H1643.97L1634.55 250.319H1755L1747.63 258.513V250.729C1747.63 244.72 1745.99 239.531 1742.71 235.16C1739.71 230.517 1735.61 226.967 1730.42 224.508C1725.23 222.05 1719.36 220.821 1712.8 220.821C1703.52 220.821 1695.73 222.733 1689.45 226.557C1683.44 230.108 1678.8 235.297 1675.52 242.125C1672.24 248.954 1670.6 257.148 1670.6 266.707C1670.6 277.632 1672.79 287.055 1677.16 294.976C1681.8 302.897 1688.49 309.043 1697.24 313.413C1706.25 317.783 1717.17 319.968 1730.01 319.968C1738.48 319.968 1745.85 318.875 1752.13 316.69C1758.69 314.505 1765.65 310.681 1773.03 305.219L1808.26 354.792C1798.7 362.44 1789.01 368.585 1779.17 373.228C1769.61 377.598 1760.06 380.74 1750.5 382.651C1740.94 384.836 1731.24 385.929 1721.41 385.929Z" fill="white"/>
<path d="M1961.46 385.929C1936.61 385.929 1915.17 381.149 1897.14 371.59C1879.11 361.757 1865.19 348.373 1855.35 331.439C1845.52 314.232 1840.6 294.703 1840.6 272.853C1840.6 256.465 1843.33 241.306 1848.8 227.376C1854.26 213.447 1861.91 201.429 1871.74 191.323C1881.57 180.944 1893.18 173.023 1906.56 167.561C1920.22 161.825 1935.11 158.957 1951.22 158.957C1967.06 158.957 1981.4 161.688 1994.24 167.151C2007.35 172.613 2018.55 180.398 2027.83 190.504C2037.39 200.609 2044.63 212.491 2049.55 226.147C2054.74 239.804 2057.06 254.826 2056.51 271.214L2056.1 288.421H1884.03L1874.61 250.319H1995.06L1987.68 258.513V250.729C1987.68 244.72 1986.05 239.531 1982.77 235.16C1979.76 230.517 1975.67 226.967 1970.48 224.508C1965.29 222.05 1959.42 220.821 1952.86 220.821C1943.57 220.821 1935.79 222.733 1929.51 226.557C1923.5 230.108 1918.86 235.297 1915.58 242.125C1912.3 248.954 1910.66 257.148 1910.66 266.707C1910.66 277.632 1912.85 287.055 1917.22 294.976C1921.86 302.897 1928.55 309.043 1937.29 313.413C1946.31 317.783 1957.23 319.968 1970.07 319.968C1978.53 319.968 1985.91 318.875 1992.19 316.69C1998.75 314.505 2005.71 310.681 2013.09 305.219L2048.32 354.792C2038.76 362.44 2029.06 368.585 2019.23 373.228C2009.67 377.598 2000.11 380.74 1990.55 382.651C1980.99 384.836 1971.3 385.929 1961.46 385.929Z" fill="white"/>
<path d="M2096.64 381.832V78.6562H2172.84V381.832H2096.64Z" fill="white"/>
<path d="M2305.23 385.929C2282.56 385.929 2262.62 382.378 2245.41 375.277C2228.2 368.175 2214.82 359.026 2205.26 347.827L2249.92 309.316C2258.66 317.236 2268.49 323.109 2279.41 326.933C2290.61 330.756 2300.45 332.668 2308.91 332.668C2311.92 332.668 2314.65 332.395 2317.11 331.849C2319.56 331.303 2321.48 330.483 2322.84 329.391C2324.48 328.025 2325.71 326.66 2326.53 325.294C2327.62 323.655 2328.17 321.88 2328.17 319.968C2328.17 315.325 2325.85 311.774 2321.2 309.316C2318.75 308.223 2314.65 306.857 2308.91 305.219C2303.45 303.307 2296.08 301.258 2286.79 299.073C2275.32 296.069 2265.08 292.518 2256.06 288.421C2247.05 284.051 2239.4 278.998 2233.12 273.262C2227.11 267.527 2222.33 260.971 2218.78 253.597C2215.5 245.949 2213.86 237.619 2213.86 228.605C2213.86 217.68 2216.32 207.984 2221.24 199.517C2226.15 191.05 2232.98 183.812 2241.72 177.803C2250.46 171.521 2260.3 166.878 2271.22 163.873C2282.15 160.596 2293.34 158.957 2304.82 158.957C2317.65 158.957 2329.67 160.323 2340.87 163.054C2352.34 165.512 2362.99 169.199 2372.83 174.116C2382.93 178.759 2391.94 184.495 2399.87 191.323L2360.53 234.751C2355.89 230.654 2350.43 226.83 2344.15 223.279C2338.14 219.729 2331.86 216.861 2325.3 214.676C2318.75 212.217 2312.6 210.988 2306.86 210.988C2303.31 210.988 2300.31 211.262 2297.85 211.808C2295.39 212.354 2293.34 213.173 2291.71 214.266C2290.07 215.358 2288.84 216.724 2288.02 218.363C2287.2 220.002 2286.79 221.777 2286.79 223.689C2286.79 226.147 2287.47 228.469 2288.84 230.654C2290.2 232.839 2292.39 234.614 2295.39 235.98C2297.85 237.346 2301.95 239.121 2307.68 241.306C2313.69 243.218 2322.3 245.676 2333.49 248.681C2346.06 252.231 2356.98 256.328 2366.27 260.971C2375.56 265.615 2383.07 270.941 2388.8 276.95C2392.9 281.593 2396.04 286.782 2398.23 292.518C2400.41 297.981 2401.5 304.126 2401.5 310.954C2401.5 325.43 2397.27 338.404 2388.8 349.876C2380.61 361.074 2369.27 369.951 2354.8 376.506C2340.32 382.788 2323.8 385.929 2305.23 385.929Z" fill="white"/>
<path d="M1026.48 725.978C1011.73 725.978 998.166 723.52 985.784 718.604C973.402 713.687 962.658 706.768 953.554 697.846C944.45 688.923 937.348 678.453 932.25 666.436C927.333 654.236 924.875 640.943 924.875 626.558C924.875 611.991 927.333 598.699 932.25 586.681C937.348 574.664 944.45 564.193 953.554 555.271C962.658 546.349 973.402 539.43 985.784 534.513C998.166 529.597 1011.73 527.139 1026.48 527.139C1041.23 527.139 1054.7 529.597 1066.9 534.513C1079.29 539.43 1090.03 546.349 1099.13 555.271C1108.42 564.193 1115.52 574.664 1120.44 586.681C1125.35 598.699 1127.81 611.9 1127.81 626.285C1127.81 640.852 1125.35 654.236 1120.44 666.436C1115.52 678.453 1108.42 688.923 1099.13 697.846C1090.03 706.768 1079.29 713.687 1066.9 718.604C1054.7 723.52 1041.23 725.978 1026.48 725.978ZM1026.48 675.722C1033.04 675.722 1039.14 674.539 1044.78 672.171C1050.42 669.804 1055.34 666.436 1059.53 662.066C1063.72 657.513 1066.9 652.233 1069.09 646.224C1071.46 640.215 1072.64 633.66 1072.64 626.558C1072.64 619.457 1071.46 612.902 1069.09 606.893C1066.9 600.884 1063.72 595.695 1059.53 591.325C1055.34 586.772 1050.42 583.313 1044.78 580.946C1039.14 578.578 1033.04 577.395 1026.48 577.395C1019.74 577.395 1013.55 578.578 1007.91 580.946C1002.26 583.313 997.346 586.772 993.158 591.325C988.97 595.695 985.693 600.884 983.325 606.893C981.14 612.72 980.048 619.275 980.048 626.558C980.048 633.66 981.14 640.215 983.325 646.224C985.693 652.233 988.97 657.513 993.158 662.066C997.346 666.436 1002.26 669.804 1007.91 672.171C1013.55 674.539 1019.74 675.722 1026.48 675.722Z" fill="white"/>
<path d="M1228.65 723.247V532.055H1276.99L1369.86 659.334L1358.66 656.603C1357.75 649.866 1356.93 643.766 1356.2 638.303C1355.66 632.84 1355.11 627.651 1354.56 622.735C1354.2 617.818 1353.84 612.902 1353.47 607.986C1353.29 603.069 1353.2 597.698 1353.2 591.871C1353.2 586.044 1353.2 579.489 1353.2 572.205V532.055H1405.37V723.247H1356.48L1256.51 586.681L1275.36 591.325C1276.27 598.79 1276.99 605.254 1277.54 610.717C1278.27 616.179 1278.82 621.096 1279.18 625.466C1279.54 629.836 1279.82 634.024 1280 638.03C1280.36 642.036 1280.55 646.315 1280.55 650.867C1280.73 655.419 1280.82 660.609 1280.82 666.436V723.247H1228.65Z" fill="white"/>
<path d="M1583.31 725.978C1569.65 725.978 1557.45 724.431 1546.71 721.335C1536.14 718.24 1526.77 713.778 1518.57 707.952C1510.56 702.125 1503.37 695.297 1497 687.467L1528.68 651.687C1537.78 663.522 1547.16 671.443 1556.81 675.449C1566.46 679.273 1575.84 681.185 1584.94 681.185C1588.95 681.185 1592.59 680.821 1595.87 680.092C1599.15 679.182 1601.61 677.816 1603.24 675.995C1605.06 673.992 1605.98 671.534 1605.98 668.621C1605.98 666.071 1605.25 663.886 1603.79 662.066C1602.33 660.245 1600.33 658.697 1597.78 657.422C1595.23 655.966 1592.41 654.691 1589.31 653.598C1586.22 652.506 1583.12 651.687 1580.03 651.14C1576.93 650.412 1573.93 649.684 1571.01 648.955C1560.27 646.588 1550.89 643.584 1542.88 639.942C1534.87 636.3 1528.13 632.021 1522.67 627.105C1517.39 622.006 1513.38 616.179 1510.65 609.624C1508.1 603.069 1506.83 595.695 1506.83 587.501C1506.83 578.578 1508.92 570.384 1513.11 562.919C1517.3 555.453 1522.85 549.08 1529.77 543.8C1536.69 538.337 1544.61 534.24 1553.53 531.509C1562.64 528.595 1572.11 527.139 1581.94 527.139C1595.41 527.139 1606.89 528.504 1616.35 531.236C1625.82 533.785 1633.74 537.518 1640.12 542.434C1646.67 547.35 1652.32 553.086 1657.05 559.641L1624.82 590.778C1621 586.59 1616.81 583.131 1612.26 580.399C1607.89 577.668 1603.33 575.665 1598.6 574.39C1593.87 572.934 1589.04 572.205 1584.12 572.205C1579.57 572.205 1575.57 572.661 1572.11 573.571C1568.83 574.481 1566.28 575.847 1564.46 577.668C1562.64 579.307 1561.73 581.583 1561.73 584.496C1561.73 587.045 1562.73 589.322 1564.73 591.325C1566.74 593.145 1569.28 594.693 1572.38 595.968C1575.48 597.242 1578.75 598.335 1582.21 599.245C1585.85 599.974 1589.13 600.611 1592.05 601.157C1602.06 603.16 1611.16 605.801 1619.36 609.078C1627.73 612.174 1635.02 616.179 1641.21 621.096C1647.4 625.83 1652.13 631.657 1655.41 638.576C1658.69 645.496 1660.33 653.598 1660.33 662.885C1660.33 676.542 1656.87 688.104 1649.95 697.573C1643.21 706.859 1634.02 713.961 1622.36 718.877C1610.89 723.611 1597.87 725.978 1583.31 725.978Z" fill="white"/>
<path d="M1732.9 723.247L1809.1 532.055H1852.8L1928.46 723.247H1874.65L1841.88 634.479C1840.06 629.563 1838.42 625.011 1836.96 620.823C1835.5 616.635 1834.14 612.538 1832.86 608.532C1831.59 604.526 1830.31 600.429 1829.04 596.241C1827.95 592.053 1826.95 587.501 1826.04 582.584L1834.78 582.311C1833.68 587.592 1832.5 592.326 1831.23 596.514C1830.13 600.702 1828.95 604.708 1827.67 608.532C1826.4 612.356 1824.94 616.362 1823.3 620.55C1821.85 624.738 1820.21 629.381 1818.39 634.479L1785.61 723.247H1732.9ZM1770.04 691.564L1786.16 653.325H1874.65L1889.68 691.564H1770.04Z" fill="white"/>
<path d="M2014.87 723.247V532.055H2068.95V676.542H2152.26V723.247H2014.87Z" fill="white"/>
<path d="M2249.3 723.247V532.055H2388.32V576.575H2301.19V678.727H2392.42V723.247H2249.3ZM2274.97 647.316V605.254H2377.4V647.316H2274.97Z" fill="white"/>
<path d="M1998.47 429.629H927.333C919.791 429.629 913.677 435.743 913.677 443.285V474.013C913.677 481.555 919.791 487.669 927.333 487.669H1969.76L1998.47 429.629Z" fill="white"/>
<path d="M2026.9 487.669H2082.39L2111.1 429.629H2055.61L2026.9 487.669Z" fill="white"/>
<path d="M2195.06 487.669H2139.53L2168.24 429.629H2223.77L2195.06 487.669Z" fill="white"/>
<path d="M2252.19 487.669H2395.41C2402.96 487.669 2409.07 481.555 2409.07 474.013V443.285C2409.07 435.743 2402.96 429.629 2395.41 429.629H2280.9L2252.19 487.669Z" fill="white"/>
</svg>
